<svg version="1.1" id="Layer_1" xmlns="http://www.w3.org/2000/svg" xmlns:xlink="http://www.w3.org/1999/xlink" x="0px" y="0px"
	 width="100%" viewBox="0 0 2911 351" enable-background="new 0 0 2911 351" xml:space="preserve">
<path fill="#A68F8B" opacity="1.000000" stroke="none" 
	d="
M1.000001,250.000000 
	C1.000000,201.298416 1.000000,152.596848 1.302944,103.781784 
	C2.035522,103.181404 2.723979,102.756172 2.856845,102.198563 
	C5.974624,89.113892 9.844370,76.199471 17.181353,64.876900 
	C23.287619,55.453583 30.072039,46.331802 37.567493,37.984688 
	C45.341316,29.327570 54.919762,22.539711 65.348511,17.180151 
	C71.474998,14.031618 77.494896,10.477876 83.953163,8.226275 
	C90.932304,5.793078 98.375359,4.700810 105.585167,2.899951 
	C106.177979,2.751879 106.533966,1.655665 107.000000,0.999999 
	C1006.034912,1.000000 1905.069824,1.000000 2804.260742,1.345286 
	C2805.252686,2.123093 2806.043213,2.747101 2806.931641,2.957940 
	C2814.339355,4.716043 2822.191895,5.391565 2829.093994,8.318279 
	C2842.301270,13.918753 2855.535645,19.970619 2866.078369,30.093851 
	C2873.627686,37.342987 2880.946045,44.930016 2887.550293,53.032387 
	C2892.188721,58.723064 2896.241455,65.195114 2899.136719,71.928398 
	C2903.127197,81.208580 2905.747314,91.075218 2909.027100,100.665825 
	C2909.879395,103.157982 2911.001709,105.557808 2912.000000,108.000015 
	C2912.000000,153.701584 2912.000000,199.403152 2911.671875,245.228210 
	C2909.565430,251.856277 2907.903564,258.395905 2905.962891,264.851685 
	C2904.895020,268.403900 2903.617676,271.943176 2901.980469,275.264252 
	C2898.137207,283.060120 2894.762939,291.242554 2889.809814,298.292633 
	C2884.686035,305.585876 2878.102539,311.902161 2871.835938,318.332764 
	C2861.129150,329.320251 2848.234131,337.188568 2834.087646,342.828033 
	C2826.582520,345.819977 2818.628418,347.681335 2810.909912,350.155487 
	C2810.456055,350.300873 2810.296387,351.363953 2810.000000,352.000000 
	C1907.965088,352.000000 1005.930176,352.000000 103.780411,351.690002 
	C102.842667,350.922852 102.063438,350.346375 101.190201,350.026672 
	C91.340645,346.420898 81.272469,343.320343 71.686607,339.117828 
	C65.029068,336.199158 58.925613,331.941956 52.757896,327.996246 
	C40.025391,319.850830 30.243490,308.730286 21.794645,296.373901 
	C12.436148,282.687134 6.500608,267.540497 2.901985,251.411118 
	C2.771956,250.828308 1.656307,250.465393 1.000001,250.000000 
M1402.540283,200.967194 
	C1415.756958,209.508469 1428.764893,208.891876 1441.491821,199.694031 
	C1444.878174,213.484894 1437.501099,224.717529 1424.112793,226.572815 
	C1417.474731,227.492676 1411.686890,225.538345 1406.461426,221.362564 
	C1402.352905,218.079346 1398.236694,218.149002 1395.785889,221.134949 
	C1393.148071,224.348709 1393.770386,228.844055 1397.385864,232.300888 
	C1398.223999,233.102203 1399.131592,233.872696 1400.121704,234.466675 
	C1412.374756,241.816910 1425.206055,243.550842 1438.184692,236.973160 
	C1450.842651,230.557968 1456.485107,219.417007 1456.619873,205.528931 
	C1456.805542,186.379089 1456.685913,167.226059 1456.650146,148.074463 
	C1456.642456,143.990005 1456.534302,139.753387 1451.368530,138.604492 
	C1446.218018,137.459015 1444.230957,140.880112 1442.791748,144.936447 
	C1442.718994,145.141479 1442.274658,145.214645 1441.827271,145.436554 
	C1441.241455,145.006271 1440.574097,144.537582 1439.929565,144.039322 
	C1427.058228,134.088303 1409.998413,135.262878 1398.720337,146.880081 
	C1384.668091,161.354858 1386.206909,186.880081 1402.540283,200.967194 
M1334.582397,201.124649 
	C1335.525024,200.440140 1336.494141,199.789200 1337.406250,199.066132 
	C1352.075439,187.436630 1354.984741,166.316422 1344.019775,151.119949 
	C1333.224487,136.158646 1311.752197,132.310699 1296.302246,142.568863 
	C1281.030762,152.708557 1276.355225,174.125793 1285.956543,189.960602 
	C1296.010376,206.542358 1316.251709,211.415741 1334.582397,201.124649 
M1670.169922,139.152985 
	C1658.513306,134.782043 1647.994263,136.572876 1638.449341,145.702499 
	C1637.479492,140.472641 1634.845093,137.996017 1629.938599,139.017761 
	C1624.825684,140.082504 1625.002563,144.158676 1625.000122,148.052109 
	C1624.989868,164.713089 1624.949219,181.374313 1625.033325,198.034882 
	C1625.059937,203.306305 1627.136841,205.612671 1631.469116,205.825516 
	C1636.039673,206.050064 1638.739258,203.663147 1638.882446,198.400726 
	C1639.131836,189.243851 1638.881226,180.074142 1639.063721,170.914276 
	C1639.129395,167.616241 1639.455688,164.223572 1640.340942,161.064041 
	C1641.828491,155.754929 1645.324219,152.180374 1650.875610,150.767578 
	C1662.426880,147.827896 1671.632568,154.926102 1671.928955,167.413910 
	C1672.173950,177.738113 1671.879272,188.074356 1672.060181,198.401138 
	C1672.167236,204.512054 1677.585693,208.162994 1682.098633,204.934677 
	C1684.116943,203.490936 1685.573242,199.982498 1685.667969,197.352798 
	C1686.057495,186.537704 1686.244385,175.679352 1685.705322,164.876862 
	C1685.166626,154.080093 1681.422485,144.656601 1670.169922,139.152985 
M1241.366699,135.500244 
	C1241.342896,128.174423 1241.455566,120.844734 1241.247925,113.524124 
	C1241.106567,108.535324 1238.683228,106.191505 1234.325684,106.156815 
	C1229.956543,106.122032 1227.744263,108.368813 1227.228394,113.419052 
	C1227.127197,114.409897 1227.130737,115.414154 1227.130615,116.412231 
	C1227.125610,142.886414 1227.115967,169.360611 1227.149658,195.834747 
	C1227.151978,197.650284 1227.296387,199.509521 1227.705933,201.271362 
	C1228.526855,204.801956 1231.185913,205.886932 1234.497559,205.842621 
	C1237.875122,205.797424 1240.346436,204.381165 1241.044922,200.911636 
	C1241.401855,199.138916 1241.353638,197.268967 1241.355347,195.442810 
	C1241.373779,175.795319 1241.365601,156.147827 1241.366699,135.500244 
M1582.369141,152.631363 
	C1582.309082,150.134689 1582.327759,147.633072 1582.171753,145.142410 
	C1581.898315,140.775986 1579.552612,138.457291 1575.125732,138.392044 
	C1570.534058,138.324356 1568.256592,140.964890 1568.227295,145.201797 
	C1568.102661,163.190216 1568.036499,181.181778 1568.262939,199.168243 
	C1568.335205,204.904007 1574.564331,208.216537 1578.965576,204.793747 
	C1580.915161,203.277679 1582.145020,199.729248 1582.202393,197.071014 
	C1582.515137,182.585770 1582.360962,168.090469 1582.369141,152.631363 
M1569.013550,126.556938 
	C1574.424072,129.927292 1579.095703,129.409958 1582.053955,125.112892 
	C1584.602295,121.411255 1583.799438,116.346664 1580.046509,113.655243 
	C1576.548462,111.146622 1572.863403,111.283188 1569.482178,113.856110 
	C1566.117188,116.416748 1565.865234,120.864845 1569.013550,126.556938 
z"/>
<path fill="#A7908C" opacity="1.000000" stroke="none" 
	d="
M1403.913574,167.201477 
	C1407.560303,155.388062 1416.351074,149.694214 1426.937500,151.941147 
	C1437.272705,154.134735 1443.542847,163.908524 1442.063843,175.519974 
	C1440.727661,186.011856 1432.091064,193.466888 1421.845459,192.972641 
	C1409.648438,192.384216 1401.516724,180.927124 1403.913574,167.201477 
z"/>
<path fill="#A6908C" opacity="1.000000" stroke="none" 
	d="
M1310.677612,191.949951 
	C1299.352539,187.923645 1293.510010,178.924316 1295.102295,168.524445 
	C1296.543091,159.114395 1304.793701,151.529221 1314.164429,150.999741 
	C1326.329102,150.312408 1336.218506,159.474823 1336.326050,171.532104 
	C1336.434204,183.665588 1326.768921,192.947906 1314.566650,192.405640 
	C1313.406860,192.354111 1312.253296,192.159088 1310.677612,191.949951 
z"/>
</svg>