<svg version="1.1" id="Layer_1" xmlns="http://www.w3.org/2000/svg" xmlns:xlink="http://www.w3.org/1999/xlink" x="0px" y="0px"
	 width="100%" viewBox="0 0 2915 347" enable-background="new 0 0 2915 347" xml:space="preserve">
<path fill="#A58F8B" opacity="1.000000" stroke="none" 
	d="
M2915.758789,22.713963 
	C2916.000000,123.687561 2916.000000,224.375122 2916.000000,325.531342 
	C2913.796387,328.817932 2914.206543,332.603149 2912.198486,335.609131 
	C2907.459961,342.702698 2900.968018,346.580139 2892.294922,347.757477 
	C1936.312378,348.000000 980.624878,348.000000 24.468658,348.000000 
	C19.740097,345.892181 14.713125,345.874542 10.824058,342.554871 
	C5.781348,338.250458 2.358228,333.216003 1.241962,326.289703 
	C1.000000,224.979111 1.000000,123.958206 1.000000,22.468658 
	C3.150239,18.328125 3.461455,13.900648 6.560961,10.506779 
	C10.959485,5.690520 15.969241,2.434119 22.715885,1.240834 
	C979.687500,1.000000 1936.375000,1.000000 2893.531250,1.000000 
	C2897.770264,3.047516 2902.240967,3.273964 2905.775879,6.160619 
	C2911.061279,10.476862 2914.583984,15.617640 2915.758789,22.713963 
z"/>
<path fill="#000000" opacity="1.000000" stroke="none" 
	d="
M2892.468750,348.000000 
	C2890.718262,347.086914 2892.030273,346.390594 2892.419434,346.310028 
	C2903.307861,344.056244 2909.664551,336.765778 2913.999268,327.148529 
	C2914.312500,326.453918 2914.995361,325.925934 2915.753174,325.660217 
	C2916.000000,332.437500 2915.844727,338.880676 2916.079102,345.309601 
	C2916.168701,347.759247 2915.482910,348.119904 2913.238770,348.062439 
	C2906.475830,347.889343 2899.705078,348.000000 2892.468750,348.000000 
z"/>
<path fill="#000000" opacity="1.000000" stroke="none" 
	d="
M1.000000,326.468781 
	C1.888815,324.697693 2.602535,326.022888 2.711234,326.388336 
	C5.892930,337.084564 13.571299,342.989746 23.708004,346.355804 
	C24.109652,346.489136 24.358152,347.083710 24.339008,347.731689 
	C17.233858,348.000000 10.463133,347.857941 3.704027,348.076050 
	C1.297536,348.153687 0.861371,347.540070 0.934037,345.253540 
	C1.127891,339.153687 1.000000,333.043579 1.000000,326.468781 
z"/>
<path fill="#000000" opacity="1.000000" stroke="none" 
	d="
M2916.000000,22.531218 
	C2915.103760,24.303299 2914.387207,22.967157 2914.282715,22.604851 
	C2911.404785,12.643652 2904.277100,6.886060 2895.176758,3.005087 
	C2894.472900,2.704956 2893.934814,2.016823 2893.659668,1.254529 
	C2900.434570,1.000000 2906.874756,1.149836 2913.301270,0.922996 
	C2915.721924,0.837550 2916.135498,1.478350 2916.064697,3.750542 
	C2915.875000,9.849275 2916.000000,15.957799 2916.000000,22.531218 
z"/>
<path fill="#000000" opacity="1.000000" stroke="none" 
	d="
M22.531218,1.000000 
	C24.299765,1.871784 22.995535,2.584593 22.627401,2.695898 
	C12.920776,5.630681 6.868916,12.383403 2.850357,21.338884 
	C2.607515,21.880062 1.953427,22.236702 1.245348,22.339605 
	C1.000000,15.896823 1.158214,9.787516 0.922080,3.693489 
	C0.827709,1.258016 1.497407,0.867794 3.754838,0.936487 
	C9.852368,1.122031 15.959258,1.000000 22.531218,1.000000 
z"/>
<path fill="#000000" opacity="1.000000" stroke="none" 
	d="
M414.000000,343.000000 
	C288.502930,343.000000 163.505829,343.029999 38.508793,342.950287 
	C26.927551,342.942902 16.325434,340.218964 9.777415,329.271454 
	C7.472043,325.417145 5.990742,321.363800 5.991303,316.805695 
	C6.003017,221.641251 5.992998,126.476807 6.010362,31.312361 
	C6.012245,20.993042 15.732709,9.645000 26.432592,6.971975 
	C29.688629,6.158558 32.912052,5.992772 36.208122,5.992797 
	C984.519287,6.000177 1932.830444,6.014051 2881.141602,5.888858 
	C2898.305420,5.886592 2911.156494,18.708765 2911.113037,35.723049 
	C2910.875244,128.720261 2911.002686,221.718414 2910.997070,314.716248 
	C2910.996094,328.570435 2900.546143,341.049011 2886.251465,342.230042 
	C2879.623047,342.777710 2873.038574,342.957458 2866.441895,342.957794 
	C2049.127930,343.002411 1231.813965,343.000000 414.000000,343.000000 
z"/>
<path fill="#A7908C" opacity="1.000000" stroke="none" 
	d="
M2083.598877,233.971344 
	C2092.220459,230.666290 2096.260498,224.884216 2094.760986,215.553970 
	C2090.630127,216.649765 2086.807373,218.547943 2082.426514,219.211853 
	C2061.127441,222.439697 2049.023682,207.572281 2046.818970,192.255432 
	C2045.402832,182.416901 2046.455444,173.265717 2051.160645,164.818054 
	C2056.231934,155.713425 2064.038086,150.252167 2074.981689,149.944153 
	C2081.849121,149.750870 2088.476318,150.283478 2094.024658,154.695221 
	C2095.958252,156.232635 2096.768555,155.114166 2097.415283,153.972534 
	C2099.937012,149.522430 2103.888916,149.339676 2107.977783,150.569763 
	C2112.465088,151.919678 2114.037598,155.477524 2114.024902,160.028992 
	C2113.967529,180.336655 2114.161621,200.646255 2113.950439,220.951889 
	C2113.768799,238.422119 2098.824463,253.143860 2081.518066,253.074951 
	C2072.328613,253.038376 2063.588867,252.476974 2056.120361,246.102814 
	C2051.941650,242.536224 2050.226074,238.288559 2051.106445,233.129532 
	C2052.114990,227.218170 2060.386475,224.658524 2065.319092,229.032852 
	C2070.635254,233.747467 2076.288086,235.738342 2083.598877,233.971344 
z"/>
<path fill="#A7908C" opacity="1.000000" stroke="none" 
	d="
M2458.560547,218.793976 
	C2455.273682,217.337540 2451.904053,217.089310 2449.000000,213.513428 
	C2449.000000,224.639725 2449.011475,234.547012 2448.995605,244.454285 
	C2448.985107,250.965759 2446.816895,253.001587 2439.972656,252.999954 
	C2432.869873,252.998260 2431.007324,251.248459 2431.004639,244.452255 
	C2430.993896,216.143021 2431.049316,187.833588 2430.947021,159.524734 
	C2430.931885,155.288712 2432.040771,151.866577 2436.165039,150.452652 
	C2440.190918,149.072495 2444.050537,149.857773 2446.860352,153.394180 
	C2447.973877,154.795975 2448.625000,156.120514 2450.826416,154.682632 
	C2467.215332,143.978775 2490.865723,150.647400 2496.243896,171.728836 
	C2500.037842,186.599884 2499.591064,200.834763 2487.281738,212.133942 
	C2480.436523,218.417496 2472.252197,220.900833 2462.942383,219.092194 
	C2461.652100,218.841537 2460.285889,218.981766 2458.560547,218.793976 
z"/>
<path fill="#A7908C" opacity="1.000000" stroke="none" 
	d="
M1892.234375,157.564026 
	C1888.494385,149.488663 1886.964111,141.888947 1889.729004,133.186996 
	C1893.563110,121.119911 1907.769165,114.380302 1919.178223,116.173683 
	C1927.909546,117.546150 1935.159546,121.541130 1939.925293,129.395493 
	C1943.910278,135.962967 1942.724365,146.078812 1937.477539,148.807632 
	C1931.480103,151.926865 1925.296753,149.516739 1922.968750,143.150314 
	C1922.634644,142.236801 1922.338501,141.308777 1921.982178,140.404236 
	C1920.417480,136.432465 1916.400513,134.614075 1912.575684,136.131470 
	C1909.286499,137.436310 1907.719849,141.703888 1909.183716,145.470932 
	C1910.874390,149.821640 1914.885742,151.631714 1918.506470,153.820877 
	C1923.659790,156.936493 1929.045044,159.582245 1933.930420,163.242447 
	C1942.526855,169.682938 1945.988281,177.939941 1946.161499,188.562653 
	C1946.344604,199.786942 1942.269897,208.031158 1933.181396,214.530624 
	C1923.877197,221.184204 1903.957764,220.540619 1894.212524,212.778122 
	C1887.345703,207.308670 1882.689209,200.955673 1882.931519,191.679214 
	C1883.046631,187.267532 1884.877075,184.339218 1888.941406,183.146591 
	C1894.446045,181.531342 1898.704468,183.089981 1901.013306,187.122238 
	C1902.472412,189.670929 1903.704468,192.366821 1905.337280,194.795654 
	C1909.247192,200.611267 1916.790039,201.346069 1922.345215,197.088196 
	C1927.313721,193.279922 1927.246094,186.360703 1922.520142,180.975449 
	C1918.372681,176.249588 1912.405762,174.362061 1907.283691,171.219574 
	C1901.429688,167.628189 1896.316528,163.522827 1892.234375,157.564026 
z"/>
<path fill="#A7908C" opacity="1.000000" stroke="none" 
	d="
M441.300842,153.818802 
	C445.587891,160.620377 447.844788,167.997223 447.748688,175.398621 
	C447.582977,188.162079 443.649597,199.723480 432.923523,208.051514 
	C423.271729,215.545425 412.118225,217.750610 400.327332,217.984116 
	C395.503418,218.079636 390.673492,218.095978 385.850891,217.970947 
	C381.059662,217.846725 379.011414,215.695572 379.007874,210.982117 
	C378.990662,188.017883 378.989807,165.053650 379.007996,142.089432 
	C379.012177,136.806946 380.835785,134.784180 386.130432,135.057007 
	C396.631561,135.598160 407.173553,133.711670 417.664703,136.763855 
	C427.623383,139.661133 435.204590,145.234467 441.300842,153.818802 
z"/>
<path fill="#A7908C" opacity="1.000000" stroke="none" 
	d="
M2176.105225,171.407593 
	C2174.283203,174.320709 2173.944092,177.166733 2173.970215,180.171509 
	C2174.051025,189.494034 2174.043457,198.817963 2173.986328,208.140854 
	C2173.940186,215.721817 2171.333008,218.061035 2163.239258,217.999939 
	C2157.530518,217.956848 2155.007080,215.003479 2155.003174,208.296783 
	C2154.993896,191.981125 2154.960205,175.665298 2155.035645,159.349991 
	C2155.050293,156.217606 2155.451172,152.888977 2158.619385,151.250809 
	C2162.315918,149.339615 2166.259277,149.469818 2169.895508,151.529526 
	C2171.287354,152.317917 2172.576172,153.616531 2171.920410,155.973114 
	C2183.875000,145.026337 2204.368408,146.629517 2212.712402,161.192474 
	C2215.342041,165.782196 2216.857910,170.774323 2216.943115,176.011719 
	C2217.127686,187.329773 2217.023682,198.653000 2216.990234,209.973953 
	C2216.972412,216.017944 2214.691650,218.002548 2207.956055,217.999969 
	C2201.006836,217.997314 2199.034668,216.253082 2199.008545,209.938400 
	C2198.973877,201.614227 2199.180664,193.284317 2198.927734,184.967697 
	C2198.790527,180.452332 2198.597412,175.666290 2196.086426,171.765579 
	C2192.140381,165.635330 2182.177002,164.020523 2176.105225,171.407593 
z"/>
<path fill="#A7908C" opacity="1.000000" stroke="none" 
	d="
M2389.000000,205.888977 
	C2389.000000,207.038071 2388.970703,207.705551 2389.004883,208.369812 
	C2389.205566,212.294098 2389.135986,216.143219 2384.574707,217.747498 
	C2379.711670,219.457840 2374.691650,217.739227 2371.618652,213.372818 
	C2363.052002,220.123230 2353.441162,221.778076 2343.437256,217.629715 
	C2334.458008,213.906311 2329.562500,206.491333 2328.021240,196.946915 
	C2326.024658,184.583008 2327.205811,172.117096 2327.077148,159.699387 
	C2327.013184,153.506042 2331.167725,149.814697 2336.997314,150.001160 
	C2343.538330,150.210358 2345.965576,152.908051 2345.991699,160.150208 
	C2346.026123,169.640533 2345.750488,179.139694 2346.077393,188.618866 
	C2346.350830,196.543991 2350.749512,202.865051 2359.871826,202.049179 
	C2364.530029,201.632568 2367.543701,199.309143 2368.990479,195.092667 
	C2370.761230,189.932068 2371.122559,184.540298 2371.029053,179.088501 
	C2370.909424,172.097595 2370.981201,165.103027 2371.006348,158.110138 
	C2371.024414,153.020721 2374.098389,150.054489 2379.333252,150.000671 
	C2385.532959,149.936951 2388.932129,152.583694 2388.964844,157.953979 
	C2389.061035,173.770767 2388.999756,189.588501 2389.000000,205.888977 
z"/>
<path fill="#A7908C" opacity="1.000000" stroke="none" 
	d="
M1075.155762,164.654907 
	C1076.388550,165.391144 1077.413330,168.602310 1078.232422,164.568069 
	C1078.817383,161.687347 1081.488037,160.870834 1084.402344,160.964355 
	C1087.204712,161.054306 1088.331177,162.483353 1089.185547,165.026596 
	C1089.845093,166.989838 1089.991821,168.861359 1089.993774,170.823364 
	C1090.006104,182.989258 1090.017578,195.155228 1089.979004,207.320999 
	C1089.973877,208.948364 1089.853149,210.548050 1089.502319,212.208511 
	C1088.726196,215.881607 1088.049072,218.505951 1083.109985,218.161560 
	C1078.281738,217.824890 1078.440430,214.542389 1077.628052,211.187012 
	C1068.937622,219.778046 1059.002930,220.859161 1048.367310,216.031418 
	C1038.309570,211.465927 1033.839600,202.996780 1033.011597,192.341415 
	C1032.280884,182.936066 1034.629639,174.612503 1041.043457,167.351990 
	C1048.442993,158.975525 1066.318848,157.297836 1075.155762,164.654907 
z"/>
<path fill="#A7908C" opacity="1.000000" stroke="none" 
	d="
M1218.978516,171.119598 
	C1227.531860,158.121719 1248.037598,156.090698 1258.672607,166.697952 
	C1259.272461,162.648788 1261.448608,160.749786 1265.580933,160.955292 
	C1269.470947,161.148773 1269.552856,163.895309 1270.398438,166.649017 
	C1270.964722,168.493118 1270.963867,170.223038 1270.972168,171.998596 
	C1271.026001,183.656464 1271.000366,195.314682 1270.999756,206.972794 
	C1270.999756,207.972046 1271.344727,209.159393 1270.927734,209.936371 
	C1269.510742,212.575775 1271.428833,216.996063 1266.970093,217.952560 
	C1262.211182,218.973480 1259.091064,217.133133 1258.558838,211.844269 
	C1243.912109,223.216583 1230.432861,219.424133 1221.864746,210.986328 
	C1211.489258,200.768570 1211.362427,182.532242 1218.978516,171.119598 
z"/>
<path fill="#A7908C" opacity="1.000000" stroke="none" 
	d="
M841.000000,198.995636 
	C841.000000,203.325851 840.994751,207.157196 841.001587,210.988495 
	C841.006653,213.840332 841.072876,217.022781 837.671143,217.860916 
	C834.064697,218.749481 830.737976,217.952835 829.312256,213.796417 
	C829.153687,213.334366 828.897034,212.905975 828.629517,212.343521 
	C820.533997,218.879761 811.470093,220.311218 801.765869,216.973175 
	C793.217957,214.032867 788.266113,207.570602 785.642212,199.169647 
	C781.855408,187.045441 785.815491,172.080643 795.507324,164.780594 
	C802.722961,159.345642 818.492065,157.633621 826.252441,164.619370 
	C827.740356,165.958771 829.401917,168.100006 830.278870,163.663101 
	C830.889526,160.574188 834.343384,160.539246 836.994263,161.126816 
	C839.939209,161.779556 841.042908,164.013107 841.024292,167.013412 
	C840.959167,177.507507 840.999695,188.002228 841.000000,198.995636 
z"/>
<path fill="#A7908C" opacity="1.000000" stroke="none" 
	d="
M730.000000,196.005371 
	C729.999695,201.336029 730.152771,206.174927 729.950806,210.998978 
	C729.786682,214.917923 728.546448,217.996140 723.614014,218.065018 
	C718.716431,218.133408 717.089844,215.162735 717.067688,211.226822 
	C716.935303,187.731689 716.940491,164.235107 717.066406,140.739914 
	C717.086121,137.059738 718.467468,133.883881 723.146973,133.991867 
	C727.628357,134.095306 729.927063,136.358612 729.976746,141.173782 
	C730.059143,149.167343 729.999207,157.162384 729.999207,165.825134 
	C737.008911,160.178177 744.412476,158.708847 752.720337,160.928940 
	C760.623962,163.041031 766.861938,170.506454 768.094360,178.800293 
	C769.644653,189.233505 768.701416,199.666428 768.962280,210.094116 
	C769.099304,215.570541 766.942078,217.993515 762.521057,217.999451 
	C758.102905,218.005386 756.144592,215.805817 756.036194,210.099396 
	C755.893738,202.603394 756.062622,195.101883 755.964294,187.604477 
	C755.932434,185.177032 756.194031,182.800323 755.226074,180.304520 
	C752.741638,173.898575 747.935242,171.078751 739.968384,172.007080 
	C735.283691,172.552948 730.171082,178.633850 730.021484,184.009735 
	C729.914856,187.839462 730.000305,191.674515 730.000000,196.005371 
z"/>
<path fill="#A7908C" opacity="1.000000" stroke="none" 
	d="
M920.669067,185.698608 
	C922.485291,167.420105 938.874573,157.086807 955.722412,160.455612 
	C965.620239,162.434723 973.282471,167.944717 976.160767,178.494965 
	C978.314148,186.388321 977.015076,191.740921 966.592896,191.949921 
	C955.605103,192.170258 944.609497,191.999298 933.596985,191.999298 
	C934.722717,203.256775 946.104370,209.696320 956.501221,205.081879 
	C958.722168,204.096176 960.970703,202.976425 962.858032,201.479111 
	C966.046814,198.949371 969.110718,199.445480 971.801819,201.738205 
	C974.049988,203.653488 973.516357,209.510422 970.751831,211.623489 
	C961.640747,218.587631 951.529907,220.641968 940.404480,217.123260 
	C929.744934,213.751923 923.446228,206.484970 921.052856,195.753464 
	C920.350281,192.603363 919.111328,189.387711 920.669067,185.698608 
z"/>
<path fill="#A7908C" opacity="1.000000" stroke="none" 
	d="
M483.350586,217.967453 
	C469.401428,213.539993 461.845642,201.171890 462.086243,189.511215 
	C462.340973,177.165649 467.435730,167.263031 479.350983,162.381302 
	C490.009460,158.014465 500.224701,158.921814 509.804871,166.170532 
	C520.584900,174.327087 524.231812,189.427597 518.465088,201.765686 
	C512.831787,213.818314 501.584320,220.177353 487.525543,218.941849 
	C486.255768,218.830276 485.021118,218.319290 483.350586,217.967453 
z"/>
<path fill="#A7908C" opacity="1.000000" stroke="none" 
	d="
M1426.225342,206.555145 
	C1419.573730,194.780029 1419.241455,183.215668 1426.510864,172.158173 
	C1433.674927,161.260986 1445.037842,158.093201 1456.151978,160.337143 
	C1470.517334,163.237518 1477.160645,171.333588 1479.855591,184.441849 
	C1482.349243,196.570251 1475.613647,209.952316 1464.187134,215.845306 
	C1453.587769,221.311783 1439.679810,220.094711 1430.976562,211.478958 
	C1429.440186,209.957977 1427.925171,208.415253 1426.225342,206.555145 
z"/>
<path fill="#A7908C" opacity="1.000000" stroke="none" 
	d="
M1544.201660,161.652573 
	C1547.838623,163.370132 1547.963501,166.393127 1547.975098,169.325668 
	C1548.029541,183.143066 1547.964111,196.960968 1548.022217,210.778336 
	C1548.038208,214.596558 1546.462646,217.220978 1542.694946,217.903854 
	C1538.848755,218.600937 1536.443726,216.752060 1535.786255,212.747253 
	C1532.082031,215.931793 1528.230225,218.876816 1523.191528,218.938782 
	C1518.309937,218.998840 1513.415649,219.557602 1508.643433,217.290771 
	C1499.404907,212.902359 1496.394775,204.994278 1496.071289,195.703735 
	C1495.747070,186.392303 1496.047607,177.060410 1495.978638,167.738205 
	C1495.947754,163.573364 1497.676758,161.149094 1501.993286,161.012085 
	C1506.431152,160.871216 1508.063477,163.306793 1508.023193,167.487839 
	C1507.943115,175.810928 1507.813965,184.140671 1508.052124,192.457733 
	C1508.295776,200.961945 1512.163574,205.684723 1517.951904,207.009125 
	C1527.196533,209.124344 1534.834229,203.175140 1534.974854,193.529480 
	C1535.093872,185.373810 1534.973511,177.214951 1535.008667,169.057693 
	C1535.036255,162.651169 1537.397461,160.643036 1544.201660,161.652573 
z"/>
<path fill="#A7908C" opacity="1.000000" stroke="none" 
	d="
M1106.000000,186.000427 
	C1106.000122,180.173508 1105.841553,174.839951 1106.058594,169.521729 
	C1106.193726,166.211960 1105.973145,162.476059 1110.726807,161.634964 
	C1114.877319,160.900574 1117.037598,162.884857 1118.342041,166.859634 
	C1125.333618,159.789932 1133.669800,158.293472 1142.694092,161.084839 
	C1151.665894,163.860001 1157.683960,173.042053 1157.953857,184.066376 
	C1158.173828,193.050446 1158.073242,202.045044 1157.969116,211.033279 
	C1157.912842,215.888229 1155.550293,218.029526 1151.091919,218.030792 
	C1147.551147,218.031815 1145.947021,216.486038 1145.978760,212.925964 
	C1146.049805,204.935989 1146.356079,196.923645 1145.879883,188.961472 
	C1145.538452,183.251205 1145.521362,177.009399 1139.217773,173.661407 
	C1129.444214,168.470490 1119.245850,174.262634 1119.031738,185.309631 
	C1118.873779,193.463669 1119.018188,201.623291 1118.993774,209.780304 
	C1118.976318,215.652328 1117.010986,218.049088 1112.346558,217.999344 
	C1108.006592,217.953064 1106.030273,215.495819 1106.008057,209.972733 
	C1105.976562,202.148697 1106.000000,194.324432 1106.000000,186.000427 
z"/>
<path fill="#A7908C" opacity="1.000000" stroke="none" 
	d="
M588.000000,209.754517 
	C587.894592,216.854797 586.878967,218.090057 581.966614,218.021988 
	C577.888916,217.965469 575.976685,216.015091 575.991333,211.966782 
	C576.022705,203.308548 576.054077,194.649734 575.986755,185.991913 
	C575.895081,174.208237 565.035339,167.948685 555.052673,174.041946 
	C550.005859,177.122452 549.293823,182.587631 549.082520,187.800903 
	C548.765747,195.613876 549.034485,203.449387 548.987671,211.274902 
	C548.956238,216.530136 547.318604,217.959595 542.227173,218.040619 
	C537.503784,218.115768 536.937195,215.346786 536.961853,211.559067 
	C537.056274,197.073624 537.082947,182.586349 536.936279,168.101776 
	C536.903503,164.865982 537.748108,162.518295 540.913574,161.624451 
	C543.424622,160.915421 546.018188,161.684326 547.228699,163.908691 
	C548.823120,166.838699 549.824280,165.289520 551.578918,164.218491 
	C560.668335,158.670303 569.953308,157.927429 579.091248,164.056168 
	C585.329407,168.239975 587.652039,174.730759 587.916626,181.815323 
	C588.258179,190.960434 587.999939,200.127960 588.000000,209.754517 
z"/>
<path fill="#A7908C" opacity="1.000000" stroke="none" 
	d="
M1584.628540,161.170197 
	C1592.425415,159.253128 1599.564697,159.295120 1606.228760,163.714676 
	C1612.780884,168.060028 1615.505859,174.611282 1615.875732,181.924469 
	C1616.371216,191.719604 1616.108765,201.560471 1615.951294,211.378174 
	C1615.868042,216.571167 1614.004639,218.049149 1609.079834,218.032562 
	C1605.528931,218.020584 1603.951416,216.464142 1603.978638,212.914215 
	C1604.046143,204.093185 1604.110718,195.269531 1603.971558,186.450165 
	C1603.796509,175.347031 1594.526733,168.945892 1584.469238,173.054337 
	C1578.404785,175.531601 1577.223511,181.122681 1577.058350,186.825043 
	C1576.827271,194.807693 1577.059448,202.802628 1576.977051,210.791107 
	C1576.925781,215.760574 1574.706665,217.924591 1570.337036,218.035873 
	C1566.131714,218.142990 1564.932617,216.021866 1564.958740,212.172745 
	C1565.060303,197.193436 1565.000610,182.213028 1564.999512,167.233032 
	C1564.999390,164.766281 1564.558105,162.424973 1568.274170,161.737137 
	C1571.638550,161.114426 1573.934326,161.974655 1575.819702,164.507324 
	C1576.210327,165.032150 1576.143433,165.897629 1576.398071,167.150650 
	C1578.760498,164.241699 1581.436646,162.675659 1584.628540,161.170197 
z"/>
<path fill="#A7908C" opacity="1.000000" stroke="none" 
	d="
M1322.811035,218.005981 
	C1306.757690,222.213242 1287.913086,212.655563 1286.030396,192.816162 
	C1284.883057,180.724670 1288.854980,170.834137 1299.388794,164.130173 
	C1309.878540,157.454269 1324.049438,158.793777 1334.129883,165.748077 
	C1337.154175,167.834534 1338.164795,171.544022 1336.544312,174.609283 
	C1334.799194,177.910385 1331.450684,178.812805 1327.601807,177.068665 
	C1324.663940,175.737396 1322.124756,173.761459 1318.858154,172.878281 
	C1312.118164,171.055969 1306.771851,173.567291 1302.622803,178.121780 
	C1297.631714,183.600693 1296.400635,190.595490 1300.252563,197.086349 
	C1303.377563,202.352173 1308.016235,206.209305 1315.114746,206.141800 
	C1319.876221,206.096527 1323.901978,204.663574 1327.409058,201.951996 
	C1330.805420,199.325928 1333.985596,198.789886 1337.060791,201.721649 
	C1339.374023,203.927048 1338.106323,210.106567 1335.053223,212.361084 
	C1331.501099,214.984131 1327.621948,217.048401 1322.811035,218.005981 
z"/>
<path fill="#A7908C" opacity="1.000000" stroke="none" 
	d="
M1378.430664,160.004654 
	C1385.489868,159.747849 1392.049927,159.815811 1397.935181,163.461823 
	C1399.313477,164.315674 1400.630127,165.306305 1401.842896,166.382919 
	C1404.872925,169.072830 1406.483521,172.394516 1403.463257,175.804642 
	C1400.689697,178.936462 1397.079956,178.770279 1393.749512,176.220963 
	C1382.559814,167.655457 1369.274536,174.431183 1366.505127,185.826904 
	C1364.395508,194.508179 1371.165894,205.216095 1380.151978,205.960022 
	C1385.481079,206.401199 1390.551514,206.043518 1394.823120,201.862259 
	C1397.762451,198.985138 1403.209717,199.241165 1405.118408,201.650909 
	C1407.133545,204.194946 1405.968018,209.278793 1402.849243,212.034439 
	C1389.516846,223.814713 1365.246948,220.627045 1356.971069,203.612000 
	C1349.530762,188.315140 1354.421875,167.622192 1372.873169,161.584732 
	C1374.565918,161.030792 1376.276733,160.532242 1378.430664,160.004654 
z"/>
<path fill="#A7908C" opacity="1.000000" stroke="none" 
	d="
M1698.621216,193.767029 
	C1695.198486,195.473907 1691.608032,196.287582 1689.276489,193.495010 
	C1686.706299,190.416794 1687.677368,186.379745 1688.758179,182.717194 
	C1690.822266,175.722778 1695.650635,170.908066 1701.601074,167.203308 
	C1703.643677,165.931595 1705.381592,164.428345 1706.673340,162.597015 
	C1710.695801,156.894180 1709.589722,150.370651 1704.308472,147.098557 
	C1698.497559,143.498276 1690.412842,145.215027 1687.062378,150.797043 
	C1686.479858,151.767548 1686.055542,152.836502 1685.595947,153.876602 
	C1683.581909,158.432587 1680.114868,160.315155 1676.527222,158.783997 
	C1673.138550,157.337708 1671.924683,152.857071 1673.868530,148.521820 
	C1677.900757,139.529434 1684.208008,134.004333 1694.576172,132.789551 
	C1703.425293,131.752762 1710.560669,133.792068 1716.664429,140.138535 
	C1723.873901,147.634552 1724.017944,162.376099 1716.714478,169.727234 
	C1713.701294,172.760132 1710.546265,175.714615 1707.130737,178.270462 
	C1701.973755,182.129303 1700.492798,187.775085 1698.621216,193.767029 
z"/>
<path fill="#A7908C" opacity="1.000000" stroke="none" 
	d="
M895.264832,195.390411 
	C892.378540,202.171555 889.938538,208.736221 886.900391,215.011215 
	C884.613647,219.734085 877.253540,219.556274 875.019287,214.696655 
	C870.133240,204.069031 865.618225,193.269775 861.017761,182.512375 
	C859.231323,178.335251 857.751770,174.024277 855.895325,169.880493 
	C854.248108,166.203705 855.089722,163.671341 858.613525,161.794022 
	C862.776489,159.576172 865.357422,161.716537 866.941895,165.128174 
	C869.261414,170.122421 871.084045,175.346664 873.142090,180.463333 
	C875.562744,186.481369 878.008850,192.489151 880.668152,199.055145 
	C883.635864,194.333557 884.939087,189.183121 886.992981,184.393219 
	C889.679138,178.128998 892.178894,171.784592 894.886047,165.529724 
	C896.419556,161.986694 898.892761,159.755493 903.022827,161.549194 
	C907.159424,163.345749 907.755798,166.458481 906.024109,170.416824 
	C902.443054,178.602478 898.971008,186.835800 895.264832,195.390411 
z"/>
<path fill="#A7908C" opacity="1.000000" stroke="none" 
	d="
M1995.216919,217.999268 
	C1989.046021,216.924500 1987.249390,214.840897 1987.087036,206.534714 
	C1986.794922,191.584732 1986.735718,176.618652 1987.087524,161.671265 
	C1987.370239,149.652893 1994.537109,148.612411 2001.259399,150.930527 
	C2004.619019,152.088989 2005.935425,154.494324 2005.951538,157.599701 
	C2006.044189,175.546051 2006.060059,193.493484 2005.951538,211.439651 
	C2005.925049,215.807632 2002.250366,217.970001 1995.216919,217.999268 
z"/>
<path fill="#A7908C" opacity="1.000000" stroke="none" 
	d="
M1639.000732,212.605515 
	C1639.000122,200.338501 1638.805908,188.529526 1639.105957,176.733154 
	C1639.209717,172.655029 1637.869751,171.580612 1634.101929,171.948883 
	C1629.791016,172.370239 1628.698120,169.654800 1629.013428,165.954361 
	C1629.237061,163.329254 1630.249756,161.434113 1633.321167,162.019318 
	C1638.391602,162.985367 1639.707520,160.620255 1639.047241,156.040924 
	C1638.765381,154.086578 1639.027710,152.057205 1638.995361,150.062698 
	C1638.930176,146.032700 1640.811157,143.941513 1644.920654,144.000473 
	C1649.007080,144.059067 1651.622192,145.520874 1651.018311,150.211365 
	C1650.892090,151.192612 1650.986450,152.204239 1651.002563,153.201508 
	C1651.045288,155.857605 1650.197021,159.060013 1651.386597,161.027176 
	C1652.782959,163.336578 1656.266113,161.773865 1658.824829,161.962112 
	C1662.197876,162.210281 1662.779053,164.698837 1662.896606,167.111496 
	C1663.033569,169.922958 1661.165894,171.501480 1658.414307,171.978378 
	C1656.032104,172.391266 1652.681519,170.701141 1651.449829,172.890411 
	C1650.300903,174.932388 1651.016235,178.055069 1651.010132,180.702332 
	C1650.985596,191.176254 1650.951538,201.650650 1651.029175,212.124054 
	C1651.052612,215.278427 1650.522217,217.868103 1646.718140,217.965317 
	C1643.128174,218.057053 1638.931641,218.850189 1639.000732,212.605515 
z"/>
<path fill="#A7908C" opacity="1.000000" stroke="none" 
	d="
M652.000000,191.000580 
	C652.000000,198.331512 651.834839,205.167908 652.057617,211.991653 
	C652.207397,216.580185 650.273804,218.129425 645.831238,218.090134 
	C641.558838,218.052353 639.894348,216.425171 639.948303,212.156815 
	C640.097961,200.329376 639.867126,188.496414 640.080688,176.670944 
	C640.144958,173.114410 639.477478,171.403748 635.519165,171.946701 
	C631.880859,172.445786 629.952515,170.758896 629.960205,166.853088 
	C629.967773,162.997025 631.712891,161.397842 635.436951,162.017593 
	C639.226685,162.648300 640.521118,161.128006 640.053345,157.401596 
	C639.765076,155.105255 640.056274,152.741577 639.988403,150.411011 
	C639.865356,146.184570 641.689209,143.919540 646.093933,143.991425 
	C650.353394,144.060959 652.588318,145.869812 652.024963,150.407684 
	C651.862000,151.720337 651.999939,153.070328 652.000000,154.403214 
	C652.000183,161.633957 651.997375,161.815842 659.059387,161.925522 
	C662.663025,161.981491 663.677734,164.125244 663.912415,166.865829 
	C664.155396,169.703659 662.338562,171.398163 659.639832,171.939972 
	C657.248901,172.419968 653.646973,170.792618 652.627136,172.737106 
	C651.380066,175.114929 652.072510,178.533630 652.013184,181.503983 
	C651.953369,184.501785 652.000000,187.501694 652.000000,191.000580 
z"/>
<path fill="#A7908C" opacity="1.000000" stroke="none" 
	d="
M1990.581543,143.809509 
	C1984.931885,140.092056 1985.205566,133.968643 1986.686646,128.944366 
	C1987.952515,124.650337 1992.726318,122.364441 1997.400269,123.019554 
	C2002.175781,123.688942 2006.371826,127.886810 2007.036621,132.125641 
	C2008.205688,139.578217 2001.388306,148.112366 1990.581543,143.809509 
z"/>
<path fill="#A7908C" opacity="1.000000" stroke="none" 
	d="
M1686.660400,203.831757 
	C1690.467651,200.319809 1697.583252,199.972992 1700.345215,202.898666 
	C1703.925415,206.691055 1703.910767,212.541901 1700.311768,216.195114 
	C1696.695801,219.865524 1690.983887,219.977966 1687.019775,216.456802 
	C1684.522095,214.238251 1684.195801,208.169327 1686.660400,203.831757 
z"/>
<path fill="#A7908C" opacity="1.000000" stroke="none" 
	d="
M605.602539,151.878174 
	C606.710815,149.726257 608.260254,148.407776 605.791382,145.936951 
	C602.788330,142.931534 602.916382,138.417770 605.623901,135.137726 
	C608.005798,132.252136 611.775452,131.991928 615.011292,134.069290 
	C618.695557,136.434555 619.587830,139.879410 618.439880,144.232040 
	C617.118652,149.241165 614.726379,153.297089 609.971436,155.434937 
	C607.150635,156.703171 604.593750,156.482285 605.602539,151.878174 
z"/>
<path fill="#000000" opacity="1.000000" stroke="none" 
	d="
M2095.000000,184.100616 
	C2094.968506,193.392365 2088.293213,201.053802 2080.223145,200.934967 
	C2071.706787,200.809586 2065.862793,194.655960 2065.098877,184.813538 
	C2064.453369,176.496307 2071.853516,168.503769 2079.736328,168.111801 
	C2087.311768,167.735123 2094.313965,174.869171 2095.000000,184.100616 
z"/>
<path fill="#000000" opacity="1.000000" stroke="none" 
	d="
M2470.812500,199.043488 
	C2464.388672,202.798096 2458.756592,200.655640 2454.400635,196.606689 
	C2449.196289,191.768906 2447.687500,185.161713 2450.354004,178.279846 
	C2452.659180,172.331039 2457.573242,169.128723 2463.638184,168.216721 
	C2469.312988,167.363464 2476.929932,173.089844 2478.671143,179.408432 
	C2480.515381,186.100311 2478.609375,194.077759 2473.540039,197.151031 
	C2472.700684,197.659927 2471.971191,198.349976 2470.812500,199.043488 
z"/>
<path fill="#000000" opacity="1.000000" stroke="none" 
	d="
M392.473022,204.507507 
	C392.095642,186.500931 392.042786,168.837463 392.014313,151.173950 
	C392.012024,149.757111 391.595398,148.063309 393.997589,148.002563 
	C404.232117,147.743729 414.432404,147.496918 423.275635,154.048340 
	C436.436432,163.798370 438.128571,184.988617 425.200348,196.534393 
	C415.597382,205.110474 404.407410,205.250732 392.473022,204.507507 
z"/>
<path fill="#000000" opacity="1.000000" stroke="none" 
	d="
M1070.693359,176.197021 
	C1079.959717,182.949860 1079.257812,198.817017 1068.019043,204.521622 
	C1059.587524,208.801437 1048.833374,204.381516 1046.143921,195.228226 
	C1042.931763,184.295685 1048.590942,174.695343 1059.736206,172.325775 
	C1063.329102,171.561905 1067.558105,172.671524 1070.693359,176.197021 
z"/>
<path fill="#000000" opacity="1.000000" stroke="none" 
	d="
M1256.828247,196.394135 
	C1252.209106,204.338196 1244.850220,207.852554 1237.685059,205.855392 
	C1231.568970,204.150665 1225.804688,196.787582 1226.132080,189.759613 
	C1226.448608,182.965591 1229.165771,177.209351 1235.902344,173.958038 
	C1241.330688,171.338089 1246.280884,171.777420 1250.866211,175.402420 
	C1256.937988,180.202530 1259.452393,186.404221 1257.404175,194.121216 
	C1257.237793,194.747833 1257.104248,195.383148 1256.828247,196.394135 
z"/>
<path fill="#000000" opacity="1.000000" stroke="none" 
	d="
M808.022705,205.504929 
	C799.037720,201.718719 796.327332,194.431808 797.005737,187.192566 
	C797.677795,180.021698 802.701477,174.684448 810.627991,172.722366 
	C816.352478,171.305359 824.179932,175.534164 826.839050,181.714981 
	C830.797180,190.915253 827.514832,200.219788 819.495850,204.797150 
	C815.933350,206.830673 812.095093,205.918457 808.022705,205.504929 
z"/>
<path fill="#000000" opacity="1.000000" stroke="none" 
	d="
M952.960388,182.000000 
	C946.410034,182.000000 940.353333,182.000000 934.067078,182.000000 
	C937.283325,174.759033 943.321594,170.869400 952.592896,172.063171 
	C958.143250,172.777847 961.956482,176.021378 964.242249,182.000000 
	C960.283386,182.000000 956.868652,182.000000 952.960388,182.000000 
z"/>
<path fill="#000000" opacity="1.000000" stroke="none" 
	d="
M497.128784,173.606232 
	C504.796967,177.137878 508.519653,182.549652 508.059021,190.866714 
	C507.663513,198.008209 503.624359,202.255020 497.669525,205.071243 
	C491.058929,208.197601 482.144257,205.520813 477.594666,199.015549 
	C473.219330,192.759506 473.835602,184.244781 478.603363,178.849777 
	C483.589905,173.207230 489.500732,171.025742 497.128784,173.606232 
z"/>
<path fill="#000000" opacity="1.000000" stroke="none" 
	d="
M1438.747437,201.251801 
	C1432.049316,195.772064 1432.336914,182.683640 1439.423218,176.928375 
	C1446.559326,171.132675 1455.391357,170.683914 1462.432861,177.919998 
	C1469.260620,184.936478 1468.838623,193.431549 1463.067139,200.574097 
	C1457.329590,207.674713 1444.225708,207.950851 1438.747437,201.251801 
z"/>
</svg>