<svg version="1.1" id="Layer_1" xmlns="http://www.w3.org/2000/svg" xmlns:xlink="http://www.w3.org/1999/xlink" x="0px" y="0px"
	 width="100%" viewBox="0 0 1182 1182" enable-background="new 0 0 1182 1182" xml:space="preserve">
<path fill="#A3918D" opacity="1.000000" stroke="none" 
	d="
M1183.000000,207.000000 
	C1183.000000,463.361359 1183.000000,719.722717 1182.619995,976.307190 
	C1181.371338,980.941345 1180.576172,985.368469 1179.620850,989.760742 
	C1175.887085,1006.929871 1171.222046,1023.764404 1164.152344,1039.962646 
	C1153.868286,1063.525757 1140.733276,1085.286865 1123.191528,1103.997070 
	C1112.613159,1115.280029 1100.846558,1125.563354 1088.875610,1135.397339 
	C1073.554688,1147.983154 1056.123169,1157.352173 1037.823853,1164.905151 
	C1017.575745,1173.262573 996.592651,1179.008545 974.695251,1181.097900 
	C974.075256,1181.157227 973.562683,1182.340698 973.000000,1183.000000 
	C719.638611,1183.000000 466.277252,1183.000000 212.681427,1182.612183 
	C210.104858,1181.803833 207.761978,1181.387817 205.420837,1180.962158 
	C187.642670,1177.729858 170.176575,1173.596924 153.146835,1167.217896 
	C122.786980,1155.845825 96.419769,1138.400391 73.050896,1116.324341 
	C64.946709,1108.668579 57.736389,1099.957886 50.818417,1091.177002 
	C35.377354,1071.577881 23.424757,1049.929443 15.031734,1026.410522 
	C8.881030,1009.175049 4.548653,991.488342 2.915200,973.196350 
	C2.845295,972.413452 1.663716,971.729858 0.999998,971.000000 
	C1.000000,718.638611 1.000000,466.277252 1.388225,213.680878 
	C2.184205,212.101685 2.756634,210.783203 2.971076,209.408875 
	C3.878051,203.596298 4.401006,197.710724 5.570336,191.954636 
	C8.978432,175.178101 13.986798,158.943268 20.803516,143.150177 
	C31.421015,118.551376 45.653400,96.350677 63.881470,76.907272 
	C73.443771,66.707420 84.121681,57.421211 95.053177,48.668308 
	C111.300423,35.659054 129.420731,25.583838 148.836426,17.987717 
	C167.705856,10.605313 186.965897,4.670640 207.302277,2.901485 
	C207.918671,2.847863 208.436310,1.659383 209.000000,1.000001 
	C464.361359,1.000000 719.722717,1.000000 975.307251,1.380001 
	C976.372864,2.169814 977.177429,2.802364 978.064087,2.953698 
	C984.331482,4.023380 990.652527,4.806533 996.887695,6.031623 
	C1016.313904,9.848536 1035.055176,16.144760 1052.406738,25.449175 
	C1066.564331,33.040821 1079.732788,42.540295 1093.050903,51.617680 
	C1108.443726,62.109127 1121.085815,75.683868 1132.436279,90.232422 
	C1144.258667,105.385910 1154.448486,121.656898 1162.261108,139.414078 
	C1171.504272,160.422928 1178.298828,182.010880 1181.081055,204.827789 
	C1181.177490,205.618103 1182.336304,206.278870 1183.000000,207.000000 
M944.363342,676.500000 
	C944.363037,607.011108 944.370850,537.522217 944.340210,468.033325 
	C944.338501,464.207214 944.298218,460.344025 943.798340,456.561249 
	C940.800659,433.878082 936.070618,411.529694 928.303711,390.008392 
	C886.936218,275.382782 808.126465,199.536011 691.824646,162.975693 
	C671.466919,156.576096 650.559021,151.311157 629.159546,151.185730 
	C549.675537,150.719772 470.187103,150.995911 390.700317,151.019699 
	C388.378723,151.020401 386.002808,151.048935 383.743561,151.511063 
	C321.448761,164.253372 277.230499,199.634247 251.553482,257.806427 
	C243.686874,275.628510 239.893448,294.255798 239.949463,314.069397 
	C240.315460,443.546844 240.134415,573.025757 240.158920,702.504211 
	C240.159485,705.491211 240.184036,708.527893 240.685242,711.457947 
	C254.197113,790.446960 322.999756,857.106873 413.616089,857.678284 
	C531.258484,858.420166 648.909180,857.896545 766.556152,857.789368 
	C775.160889,857.781555 783.878845,857.438110 792.351013,856.061768 
	C867.444946,843.862244 916.432922,801.192383 940.139832,729.027466 
	C945.701294,712.098083 944.055603,694.762207 944.363342,676.500000 
M552.500000,1032.637451 
	C626.996216,1032.637573 701.492493,1032.585205 775.988525,1032.711182 
	C784.394226,1032.725342 792.217163,1031.370239 799.343018,1026.826416 
	C825.309143,1010.268982 831.280823,988.570007 827.350281,963.967041 
	C822.979797,936.610474 798.409668,916.704407 770.759277,916.687866 
	C612.434082,916.593262 454.108887,916.644226 295.783691,916.637024 
	C284.444733,916.636475 274.084808,919.918152 264.666321,926.083923 
	C253.419434,933.446472 243.828873,943.271729 241.606262,956.340942 
	C239.422241,969.183289 238.780945,983.385254 242.004257,995.812683 
	C247.997574,1018.919861 269.154297,1032.638306 293.013306,1032.638184 
	C379.175537,1032.637939 465.337769,1032.636963 552.500000,1032.637451 
z"/>
<path fill="#A3918D" opacity="1.000000" stroke="none" 
	d="
M368.865448,675.056946 
	C359.923950,657.275940 355.941833,638.777344 355.963562,619.257996 
	C356.053558,538.430359 355.339844,457.593964 356.374908,376.779419 
	C356.730743,348.996033 368.748138,324.490692 388.094208,304.167236 
	C411.869720,279.190430 441.172577,266.881317 475.619934,266.877075 
	C517.449585,266.871918 559.307007,266.010376 601.101990,267.237244 
	C656.271667,268.856720 705.193787,288.200500 746.921021,324.473846 
	C791.881042,363.557556 818.363037,412.964294 826.601135,471.955597 
	C828.133789,482.930420 828.678162,494.114594 828.754150,505.208496 
	C829.011047,542.704285 828.802490,580.202942 828.867310,617.700439 
	C828.923279,650.082581 818.899719,678.620911 796.513855,702.342896 
	C776.259277,723.806335 751.287109,735.971680 721.930908,738.942810 
	C715.980225,739.545105 709.956604,739.606873 703.966431,739.610229 
	C628.804749,739.652222 553.642944,739.583191 478.481384,739.679077 
	C461.466980,739.700745 444.966827,737.342773 429.222351,730.710815 
	C402.551971,719.476624 382.472382,701.038025 368.865448,675.056946 
z"/>
</svg>